<?xml version="1.0" encoding="utf-8"?>
<!-- Generator: Adobe Illustrator 23.0.5, SVG Export Plug-In . SVG Version: 6.00 Build 0)  -->
<svg version="1.1" id="Layer_1" xmlns="http://www.w3.org/2000/svg" xmlns:xlink="http://www.w3.org/1999/xlink" x="0px" y="0px"
	 viewBox="0 0 736.14 287.02" style="enable-background:new 0 0 736.14 287.02;" xml:space="preserve">
<style type="text/css">
	.st0{fill:#CE1127;}
	.st1{fill:#007A3D;}
	.st2{fill:#2D2D2D;}
</style>
<polygon class="st0" points="84.77,85.98 74.23,86.09 58.04,57.07 68.57,56.97 "/>
<polygon class="st0" points="106.9,85.98 96.36,86.09 80.16,57.07 90.7,56.97 "/>
<polygon class="st1" points="146.47,85.98 157.01,86.09 173.21,57.07 162.67,56.97 "/>
<polygon class="st1" points="124.35,85.98 134.88,86.09 151.08,57.07 140.54,56.97 "/>
<polygon class="st1" points="110.75,70.01 116.27,80.91 131.15,54.63 125.62,43.72 "/>
<polygon class="st1" points="99.07,51.73 104.59,62.64 119.46,36.35 113.94,25.44 "/>
<rect x="73.75" y="91.55" class="st0" width="84.71" height="7.82"/>
<g>
	<path class="st2" d="M327.88,163.82c0,5.29-0.12,5.52-1.53,6.35c-7.52,4-18.1,5.29-24.92,5.29c-8.93,0-25.62-1.18-38.67-12.58
		c-7.17-6.23-13.99-18.8-13.99-33.49c0-18.8,9.17-32.08,19.63-38.67c10.58-6.58,22.21-7.4,31.26-7.4c7.4,0,15.75,1.53,17.98,2
		c2.47,0.59,6.58,1.06,9.52,1.18c1.17,0.12,1.41,0.59,1.41,1.06c0,1.65-0.82,4.94-0.82,16.69c0,1.88-0.23,2.47-1.06,2.47
		c-0.59,0-0.71-0.71-0.82-1.76c-0.12-1.65-0.71-4.94-2.47-7.76c-2.94-4.47-12.46-9.52-27.62-9.52c-7.4,0-16.22,0.71-25.15,7.76
		c-6.82,5.41-11.63,16.1-11.63,29.85c0,16.57,8.34,28.56,12.46,32.55c9.28,9.05,19.98,12.57,30.79,12.57
		c4.23,0,10.34-0.71,13.4-2.47c1.53-0.82,2.35-2.12,2.35-4.11v-19.98c0-9.52-0.59-10.81-5.29-12.1c-0.94-0.23-2.94-0.35-4-0.35
		c-0.47,0-0.94-0.24-0.94-0.71c0-0.71,0.59-0.94,1.88-0.94c5.29,0,12.69,0.35,13.28,0.35c0.59,0,7.99-0.35,11.52-0.35
		c1.29,0,1.88,0.24,1.88,0.94c0,0.47-0.47,0.71-0.94,0.71c-0.82,0-1.53,0.12-2.94,0.35c-3.17,0.59-4.11,2.59-4.35,6.7
		c-0.23,3.76-0.23,7.29-0.23,12.22V163.82z"/>
	<path class="st2" d="M361.12,147.08c0,12.54,0.44,18.86,2.29,20.6c1.74,1.53,3.92,2.18,11.45,2.18c4.8,0,9.16,0,11.56-3.05
		c1.09-1.64,1.85-3.82,2.07-5.45c0.11-0.87,0.33-1.31,0.87-1.31c0.44,0,0.65,0.33,0.65,1.42c0,1.09-0.65,7.3-1.31,9.81
		c-0.65,2.18-0.54,2.73-5.78,2.73c-7.41,0-15.59-0.54-26.49-0.54c-3.6,0-5.78,0.33-9.59,0.33c-1.09,0-1.74-0.22-1.74-0.87
		c0-0.33,0.33-0.65,1.2-0.65s1.74,0,2.62-0.22c1.85-0.33,2.51-2.51,2.83-5.12c0.65-4.14,0.44-11.66,0.44-20.06v-16.35
		c0-14.39,0-16.79-0.22-19.73c-0.22-3.05-0.65-5.01-4.36-5.45c-0.65-0.11-1.85-0.11-2.73-0.11c-0.76,0-1.2-0.33-1.2-0.76
		c0-0.55,0.55-0.76,1.64-0.76c4.58,0,11.12,0.33,11.34,0.33c1.53,0,8.18-0.33,11.23-0.33c1.09,0,1.42,0.33,1.42,0.76
		s-0.55,0.76-1.2,0.76c-0.76,0-1.85,0.11-2.94,0.22c-3.05,0.44-3.71,2.18-3.92,5.34c-0.22,2.94-0.11,5.34-0.11,19.73V147.08z"/>
	<path class="st2" d="M414.53,147.19c-0.54,0-0.87,0.33-1.09,0.87l-4.8,13.63c-1.09,3.05-1.85,6-1.85,7.74c0,1.96,1.2,2.83,3.6,2.83
		c0.33,0,0.44,0,0.76,0c0.98,0,1.31,0.33,1.31,0.76c0,0.54-0.87,0.76-1.63,0.76c-2.4,0-7.41-0.33-8.61-0.33
		c-1.09,0-5.89,0.33-10.46,0.33c-1.2,0-1.74-0.22-1.74-0.76c0-0.44,0.44-0.76,1.31-0.76c0.54,0,1.53,0,2.18-0.11
		c4.69-0.44,6.54-4.03,8.39-8.61l21.8-57.45c1.2-3.16,1.53-3.71,2.29-3.71c0.54,0,0.98,0.44,2.18,3.49
		c1.53,3.6,16.35,41.64,22.13,55.27c3.6,8.61,6.76,10.03,8.29,10.57c1.42,0.54,2.94,0.54,3.71,0.54s1.31,0.22,1.31,0.76
		s-0.44,0.76-1.64,0.76c-1.09,0-9.27,0-16.57-0.22c-2.07-0.11-2.72-0.22-2.72-0.76c0-0.33,0.33-0.65,0.76-0.76
		c0.44-0.22,1.09-0.76,0.44-2.4l-8.61-21.91c-0.22-0.33-0.44-0.54-0.87-0.54H414.53z M433.06,143.37c0.44,0,0.44-0.33,0.33-0.65
		l-8.61-24.09c-0.54-1.53-0.65-1.53-1.2,0l-8.18,24.09c-0.22,0.44,0,0.65,0.22,0.65H433.06z"/>
	<path class="st2" d="M544.24,161.8c0.33,2.62,0.98,8.72,5.23,9.7c1.85,0.44,4.03,0.65,5.56,0.76c0.44,0,1.42,0.11,1.42,0.65
		s-0.44,0.87-1.63,0.87c-1.96,0-13.74-0.44-17.22-0.65c-2.4-0.22-3.27-0.44-3.27-0.98c0-0.33,0.44-0.76,0.98-0.98
		c0.54-0.22,0.87-1.53,0.65-3.05l-4.8-46.66l-23.11,46.87c-2.07,4.25-2.4,5.23-3.38,5.23c-0.65,0-1.2-0.98-3.27-4.69
		c-1.74-3.16-10.46-20.6-11.12-21.58c-0.65-1.31-11.34-22.46-12.21-24.75l-4.03,41.97c-0.11,1.53-0.11,2.51-0.11,4.14
		c0,1.2,0.54,2.83,2.73,3.27c1.2,0.22,1.96,0.22,3.05,0.33c0.87,0.11,1.09,0.44,1.09,0.65c0,0.76-0.65,0.87-1.85,0.87
		c-3.49,0-8.18-0.33-9.05-0.33c-1.09,0-5.67,0.33-8.39,0.33c-0.98,0-1.63-0.11-1.63-0.87c0-0.22,0.44-0.65,1.42-0.65
		c0.76,0,0.87,0,2.07-0.11c2.62-0.22,3.6-2.83,4.14-7.19l7.3-59.85c0.22-1.85,0.65-2.73,1.2-2.73s0.87,0.33,1.63,1.74l29.21,56.58
		l27.8-56.47c0.54-1.2,0.98-1.85,1.64-1.85c0.65,0,0.98,0.98,1.09,2.73L544.24,161.8z"/>
	<path class="st2" d="M556.23,138.58c0-14.5,11.23-36.19,38.15-36.19c21.58,0,38.04,12.86,38.04,34.77
		c0,20.82-15.37,37.83-38.59,37.83C567.13,174.99,556.23,155.15,556.23,138.58z M622.18,139.88c0-21.91-13.52-34.12-28.45-34.12
		c-15.15,0-27.36,9.37-27.36,29.98c0,21.37,11.88,35.54,30.2,35.54C603.86,171.28,622.18,167.57,622.18,139.88z"/>
	<path class="st2" d="M649.99,127.15c0-15.51,0-18.33-0.24-21.51c-0.24-3.17-1.06-4.94-4.7-5.64c-0.71-0.12-1.88-0.23-2.82-0.23
		c-0.82,0-1.29-0.23-1.29-0.71s0.35-0.82,1.41-0.82c5.05,0,12.22,0.35,12.46,0.35c1.06,0,9.05-0.35,12.34-0.35
		c6.58,0,13.75,0.59,19.27,4.47c2.23,1.65,7.05,6.35,7.05,14.34c0,6.46-3.17,14.69-12.46,22.21c8.58,10.58,15.63,19.27,21.63,25.5
		c5.64,5.76,9.17,6.7,12.46,7.17c0.82,0.12,3.29,0.23,3.64,0.23c0.94,0,1.29,0.35,1.29,0.82c0,0.59-0.47,0.82-2.12,0.82h-8.23
		c-5.52,0-8.11-0.35-10.69-1.41c-4.94-2.12-8.46-7.4-14.57-15.28c-4.58-5.64-9.28-11.99-11.28-14.46c-0.47-0.47-0.71-0.71-1.41-0.71
		l-12.1-0.12c-0.47,0-0.59,0.12-0.59,0.59v1.65c0,9.4,0,17.98,0.59,22.21c0.35,2.82,0.71,5.17,4.58,5.64
		c1.18,0.12,2.47,0.23,3.41,0.23c1.06,0,1.53,0.35,1.53,0.71c0,0.59-0.47,0.94-1.65,0.94c-6.11,0-12.69-0.35-13.16-0.35
		c-1.88,0-7.05,0.35-10.22,0.35c-1.17,0-1.64-0.23-1.64-0.94c0-0.35,0.71-0.71,1.41-0.71c0.82,0,1.65,0,2.58-0.23
		c2-0.35,2.7-1.65,3.06-4.47c0.59-4.23,0.47-13.87,0.47-22.68V127.15z M659.04,135.5c0,0.59,0.12,1.18,0.59,1.41
		c1.53,0.82,6.23,1.53,10.46,1.53c2.47,0,5.41-0.12,7.87-1.76c3.53-2.23,5.88-7.4,5.88-14.93c0-12.81-6.82-19.86-17.28-19.86
		c-2.94,0-5.41,0.24-6.82,0.59c-0.35,0.12-0.71,0.47-0.71,1.06V135.5z"/>
</g>
<g>
	<path class="st2" d="M341.05,223.13c-4.6-4.12-5.73-9.53-5.73-14.03c0-3.18,1.09-8.72,5.31-12.94c2.84-2.84,7.16-5.07,14.46-5.07
		c1.9,0,4.55,0.14,6.87,0.57c1.8,0.33,3.27,0.47,5.02,0.71c0.33,0.05,0.43,0.24,0.43,0.52c0,0.38-0.14,0.95-0.24,2.65
		c-0.1,1.56-0.1,4.17-0.14,4.88c-0.05,0.71-0.14,1-0.43,1c-0.33,0-0.38-0.33-0.38-1c0-1.85-0.76-3.79-1.99-4.83
		c-1.66-1.42-5.31-2.7-9.48-2.7c-6.3,0-9.24,1.85-10.9,3.46c-3.46,3.32-4.27,7.54-4.27,12.37c0,9.05,6.97,17.35,17.11,17.35
		c3.55,0,6.35-0.43,8.25-2.37c1-1.04,1.61-3.13,1.75-3.98c0.09-0.52,0.19-0.71,0.47-0.71c0.24,0,0.33,0.33,0.33,0.71
		c0,0.33-0.57,4.46-1.04,6.07c-0.29,0.9-0.38,1-1.23,1.37c-1.9,0.76-5.5,1.09-8.53,1.09C349.58,228.25,344.79,226.5,341.05,223.13z"
		/>
	<path class="st2" d="M373.04,212.28c0-6.3,4.88-15.73,16.59-15.73c9.38,0,16.54,5.59,16.54,15.12c0,9.05-6.68,16.45-16.78,16.45
		C377.77,228.11,373.04,219.48,373.04,212.28z M401.71,212.85c0-9.53-5.88-14.83-12.37-14.83c-6.59,0-11.9,4.08-11.9,13.03
		c0,9.29,5.17,15.45,13.13,15.45C393.75,226.5,401.71,224.89,401.71,212.85z"/>
	<path class="st2" d="M419.58,215.98c0,5.45,0.19,8.2,1,8.96c0.76,0.66,1.71,0.95,4.98,0.95c2.08,0,3.98,0,5.02-1.33
		c0.47-0.71,0.81-1.66,0.9-2.37c0.05-0.38,0.14-0.57,0.38-0.57c0.19,0,0.28,0.14,0.28,0.62s-0.28,3.18-0.57,4.27
		c-0.28,0.95-0.24,1.18-2.51,1.18c-3.22,0-6.78-0.24-11.52-0.24c-1.56,0-2.51,0.14-4.17,0.14c-0.47,0-0.76-0.09-0.76-0.38
		c0-0.14,0.14-0.28,0.52-0.28c0.38,0,0.76,0,1.14-0.09c0.81-0.14,1.09-1.09,1.23-2.23c0.28-1.8,0.19-5.07,0.19-8.72v-7.11
		c0-6.26,0-7.3-0.09-8.58c-0.09-1.33-0.28-2.18-1.9-2.37c-0.28-0.05-0.81-0.05-1.18-0.05c-0.33,0-0.52-0.14-0.52-0.33
		c0-0.24,0.24-0.33,0.71-0.33c1.99,0,4.83,0.14,4.93,0.14c0.66,0,3.55-0.14,4.88-0.14c0.47,0,0.62,0.14,0.62,0.33
		c0,0.19-0.24,0.33-0.52,0.33c-0.33,0-0.81,0.05-1.28,0.09c-1.33,0.19-1.61,0.95-1.71,2.32c-0.09,1.28-0.05,2.32-0.05,8.58V215.98z"
		/>
	<path class="st2" d="M444.41,215.98c0,5.45,0.19,8.2,1,8.96c0.76,0.66,1.71,0.95,4.98,0.95c2.08,0,3.98,0,5.02-1.33
		c0.47-0.71,0.81-1.66,0.9-2.37c0.05-0.38,0.14-0.57,0.38-0.57c0.19,0,0.29,0.14,0.29,0.62s-0.29,3.18-0.57,4.27
		c-0.28,0.95-0.24,1.18-2.51,1.18c-3.22,0-6.78-0.24-11.52-0.24c-1.56,0-2.51,0.14-4.17,0.14c-0.47,0-0.76-0.09-0.76-0.38
		c0-0.14,0.14-0.28,0.52-0.28c0.38,0,0.76,0,1.14-0.09c0.81-0.14,1.09-1.09,1.23-2.23c0.28-1.8,0.19-5.07,0.19-8.72v-7.11
		c0-6.26,0-7.3-0.09-8.58c-0.09-1.33-0.28-2.18-1.9-2.37c-0.28-0.05-0.81-0.05-1.18-0.05c-0.33,0-0.52-0.14-0.52-0.33
		c0-0.24,0.24-0.33,0.71-0.33c1.99,0,4.83,0.14,4.93,0.14c0.66,0,3.55-0.14,4.88-0.14c0.47,0,0.62,0.14,0.62,0.33
		c0,0.19-0.24,0.33-0.52,0.33c-0.33,0-0.81,0.05-1.28,0.09c-1.33,0.19-1.61,0.95-1.71,2.32c-0.09,1.28-0.05,2.32-0.05,8.58V215.98z"
		/>
	<path class="st2" d="M465.35,208.77c0-6.21,0-7.35-0.09-8.63c-0.09-1.33-0.43-1.99-1.8-2.27c-0.28-0.05-0.76-0.09-1.14-0.09
		c-0.33,0-0.62-0.14-0.62-0.28c0-0.28,0.24-0.38,0.71-0.38c0.95,0,2.23,0.09,4.88,0.14c0.24,0,8.67,0,9.62-0.05s1.47-0.09,1.85-0.24
		c0.28-0.09,0.33-0.14,0.52-0.14c0.09,0,0.19,0.09,0.19,0.33c0,0.28-0.29,0.95-0.38,2.13c-0.05,0.81-0.09,1.56-0.14,2.46
		c0,0.43-0.09,0.71-0.33,0.71s-0.33-0.19-0.33-0.52c-0.05-0.71-0.19-1.18-0.33-1.52c-0.29-0.95-0.71-1.28-3.08-1.42
		c-0.62-0.05-5.31-0.09-5.4-0.09c-0.14,0-0.24,0.09-0.24,0.38v10.76c0,0.28,0.05,0.47,0.28,0.47c0.57,0,5.4-0.05,6.4-0.14
		c1.09-0.05,1.8-0.19,2.18-0.71c0.19-0.28,0.33-0.38,0.52-0.38c0.09,0,0.19,0.05,0.19,0.28c0,0.24-0.19,1.14-0.33,2.51
		c-0.14,1.33-0.14,2.27-0.19,2.89c-0.05,0.38-0.14,0.52-0.33,0.52c-0.24,0-0.29-0.28-0.29-0.62c0-0.28-0.05-0.76-0.14-1.14
		c-0.19-0.62-0.47-1.28-2.28-1.42c-1.09-0.09-4.93-0.19-5.69-0.19c-0.29,0-0.33,0.14-0.33,0.33v3.46c0,1.47-0.05,5.64,0,6.45
		c0.09,1.75,0.33,2.65,1.33,3.08c0.71,0.33,1.85,0.43,3.46,0.43c0.9,0,2.42,0.05,3.6-0.28c1.42-0.43,1.75-1.37,2.13-3.13
		c0.09-0.47,0.24-0.66,0.43-0.66c0.28,0,0.28,0.43,0.28,0.71c0,0.33-0.38,3.32-0.52,4.12c-0.19,0.95-0.52,1.04-2.08,1.04
		c-3.13,0-4.46-0.09-6.11-0.09c-1.66-0.05-3.84-0.14-5.59-0.14c-1.09,0-1.99,0.14-3.13,0.14c-0.43,0-0.66-0.09-0.66-0.33
		c0-0.19,0.19-0.33,0.43-0.33c0.28,0,0.62-0.05,0.95-0.14c0.85-0.19,1.42-0.81,1.52-3.74c0.05-1.61,0.09-3.55,0.09-7.16V208.77z"/>
	<path class="st2" d="M491.37,223.8c-4.03-3.51-5.07-8.15-5.07-12.09c0-2.65,1.04-7.35,4.79-10.95c2.56-2.46,6.4-4.22,12.75-4.22
		c2.18,0,3.93,0.19,6.26,0.52c1.52,0.24,3.03,0.47,4.17,0.52c0.38,0,0.43,0.24,0.43,0.47c0,0.38-0.14,0.81-0.24,2.32
		c-0.05,1.33-0.05,3.79-0.09,4.36c-0.05,0.66-0.14,0.9-0.38,0.9c-0.33,0-0.38-0.28-0.38-0.9c0-1.37-0.66-3.22-1.85-4.12
		c-1.42-1.23-4.74-2.42-8.39-2.42c-5.26,0-7.68,1.47-9.1,2.75c-3.08,2.8-3.79,6.21-3.79,10.38c0,7.87,6.4,14.79,14.74,14.79
		c3.22,0,5.59-0.33,7.25-1.94c0.85-0.9,1.33-2.09,1.56-3.41c0.09-0.47,0.24-0.71,0.52-0.71c0.24,0,0.24,0.33,0.24,0.66
		c0,0.38-0.62,4.22-0.95,5.26c-0.28,0.76-0.43,0.9-1.09,1.19c-1.66,0.71-4.83,0.95-7.49,0.95C499,228.11,494.74,226.69,491.37,223.8
		z"/>
	<path class="st2" d="M534.21,215.88c0,3.65,0.05,7.01,0.24,8.77c0.14,1.14,0.24,1.8,1.42,2.09c0.57,0.14,1.47,0.19,1.85,0.19
		c0.38,0,0.57,0.14,0.57,0.28c0,0.24-0.14,0.38-0.62,0.38c-2.42,0-5.21-0.14-5.4-0.14s-2.99,0.14-4.22,0.14
		c-0.52,0-0.71-0.09-0.71-0.33c0-0.14,0.14-0.33,0.52-0.33c0.38,0,0.66,0,1.04-0.05c0.9-0.14,1.04-0.71,1.23-2.32
		c0.19-1.71,0.19-5.12,0.19-8.67v-16.92c-1.56,0-4.08,0-5.97,0.05c-3.03,0.05-3.7,0.52-4.36,1.52c-0.43,0.66-0.62,1.23-0.71,1.47
		c-0.14,0.33-0.24,0.38-0.43,0.38s-0.24-0.19-0.24-0.43c-0.05-0.28,0.66-3.41,0.95-4.69c0.14-0.57,0.28-0.76,0.43-0.76
		c0.33,0,1.23,0.43,2.08,0.52c1.66,0.19,2.99,0.24,3.03,0.24h15.54c1.33,0,2.75-0.09,3.41-0.24c0.62-0.14,0.76-0.19,0.9-0.19
		c0.19,0,0.28,0.24,0.28,0.43c0,1.33-0.09,4.46-0.09,4.83c0,0.43-0.19,0.57-0.33,0.57c-0.24,0-0.33-0.19-0.33-0.57
		c0-0.14,0-0.19-0.05-0.66c-0.19-1.9-0.81-2.37-5.59-2.42c-1.8,0-3.27-0.05-4.64-0.05V215.88z"/>
	<path class="st2" d="M553.74,208.77c0-6.26,0-7.39-0.09-8.67s-0.38-1.99-1.37-2.18c-0.47-0.09-0.81-0.09-1.09-0.14
		c-0.33-0.05-0.52-0.14-0.52-0.33c0-0.24,0.19-0.33,0.71-0.33c1.47,0,4.17,0.14,4.31,0.14c0.19,0,2.94-0.14,4.27-0.14
		c0.47,0,0.71,0.09,0.71,0.33c0,0.19-0.14,0.28-0.52,0.33c-0.28,0.05-0.52,0.05-0.85,0.09c-1.37,0.19-1.52,0.9-1.61,2.27
		c-0.09,1.28-0.05,2.37-0.05,8.63v7.11c0,3.65-0.05,6.97,0.19,8.67c0.19,1.37,0.38,1.9,1.61,2.18c0.62,0.14,1.61,0.19,1.8,0.19
		c0.43,0.05,0.52,0.14,0.52,0.33s-0.19,0.33-0.66,0.33c-2.42,0-5.17-0.14-5.4-0.14c-0.14,0-2.94,0.14-4.27,0.14
		c-0.43,0-0.76-0.09-0.76-0.33c0-0.19,0.19-0.33,0.62-0.33c0.24,0,0.76-0.05,1.14-0.14c0.81-0.19,0.95-1.14,1.09-2.27
		c0.24-1.71,0.24-5.07,0.24-8.63V208.77z"/>
	<path class="st2" d="M567.1,212.28c0-6.3,4.88-15.73,16.59-15.73c9.38,0,16.54,5.59,16.54,15.12c0,9.05-6.68,16.45-16.78,16.45
		C571.84,228.11,567.1,219.48,567.1,212.28z M595.78,212.85c0-9.53-5.88-14.83-12.37-14.83c-6.59,0-11.9,4.08-11.9,13.03
		c0,9.29,5.17,15.45,13.13,15.45C587.81,226.5,595.78,224.89,595.78,212.85z"/>
	<path class="st2" d="M608.95,198.49c0-1.47,0.14-1.94,0.52-1.94c0.33,0,1.14,0.95,1.47,1.28c0.43,0.47,7.01,7.2,13.65,13.98
		c3.7,3.6,8.44,8.48,9.67,9.62l-0.52-19.72c-0.05-2.56-0.33-3.41-1.61-3.74c-0.81-0.14-1.52-0.19-1.85-0.19
		c-0.47,0-0.57-0.19-0.57-0.38c0-0.24,0.38-0.28,0.85-0.28c2.04,0,4.03,0.14,4.46,0.14c0.47,0,1.94-0.14,3.79-0.14
		c0.52,0,0.66,0.05,0.66,0.28c0,0.19-0.14,0.33-0.43,0.38c-0.28,0.05-0.66,0.05-1.18,0.14c-1.09,0.24-1.42,0.71-1.42,3.55
		l-0.09,23.79c0,2.37-0.09,2.61-0.43,2.61c-0.33,0-0.81-0.33-3.13-2.51c-0.19-0.09-6.78-6.64-10.9-10.66
		c-4.93-5.12-9.67-10.05-10.85-11.28l0.62,18.53c0.09,3.27,0.38,4.5,1.56,4.79c0.76,0.19,1.56,0.19,1.94,0.19
		c0.38,0,0.57,0.14,0.57,0.33c0,0.24-0.24,0.33-0.76,0.33c-2.56,0-4.26-0.14-4.6-0.14s-2.08,0.14-4.12,0.14
		c-0.43,0-0.71-0.05-0.71-0.33c0-0.19,0.19-0.33,0.66-0.33c0.33,0,0.85,0,1.47-0.19c1.04-0.33,1.28-1.61,1.28-5.07
		C608.95,199.06,609,206.35,608.95,198.49z"/>
</g>
<g>
	<g>
		<path class="st2" d="M113.17,253.89l-81.41-93.76l42.82-40.64h77.34l25.25,23.84c5.06,4.78,11.76,7.44,18.72,7.44h3.84
			l-43.81-41.37H70.55l-52.72,50.05L113.2,269.3l84.57-98.18h-0.81c-7.94,0-15.48,3.46-20.66,9.47L113.17,253.89z"/>
	</g>
</g>
<g>
	<g>
		<path class="st2" d="M168.58,169.8l-56.11,63.71l-60.93-70.08l27.97-27.97h69.32l13.21,13.87h-8.68c-3.34,0-6.54-1.37-8.85-3.79
			l0,0H83.68L65.31,163.9l47.21,54.3l33.76-38.32h-22.66c-5.57,0-10.08-4.51-10.08-10.08v0H168.58z"/>
	</g>
</g>
<rect x="76.08" y="112.8" transform="matrix(0.9593 -0.2825 0.2825 0.9593 -32.9076 26.8349)" class="st2" width="1.02" height="29.43"/>
<rect x="40.17" y="146.96" transform="matrix(0.1822 -0.9833 0.9833 0.1822 -125.7025 172.2209)" class="st2" width="1.02" height="29.43"/>
<rect x="112.3" y="228.45" transform="matrix(0.9999 -0.0159 0.0159 0.9999 -3.8456 1.8212)" class="st2" width="1.02" height="29.43"/>
<rect x="149.8" y="112.91" transform="matrix(-0.9776 -0.2103 0.2103 -0.9776 270.4232 283.9978)" class="st2" width="1.02" height="29.43"/>
</svg>
